<?xml version="1.0" encoding="utf-8"?>
<!DOCTYPE svg PUBLIC "-//W3C//DTD SVG 1.1//EN" "http://www.w3.org/Graphics/SVG/1.1/DTD/svg11.dtd">
<svg version="1.1" xmlns="http://www.w3.org/2000/svg" xmlns:xlink="http://www.w3.org/1999/xlink" x="0px" y="0px" viewBox="0 0 1000 1000" enable-background="new 0 0 1000 1000" xml:space="preserve">
<metadata> Account </metadata>
<g><g transform="translate(0.000000,511.000000) scale(0.100000,-0.100000)"><path d="M4638.9,4995.2c-557-73.3-1100.2-339.2-1515.1-735.8c-403.4-387.4-630.3-779.3-783.9-1345.5c-52.7-199.4-57.3-261.3-57.3-644.1c0-382.8,4.6-444.7,57.3-644.1c110-405.7,245.3-694.5,476.8-1006.3c112.3-149,403.4-442.4,547.8-552.4l77.9-57.3l-146.7-52.7c-676.2-245.3-1400.5-756.4-1879.6-1329.4C717-2206.8,322.8-3229.1,311.3-4246.8c-4.6-252.1,0-288.8,45.8-359.9c27.5-45.8,91.7-105.4,142.1-132.9l89.4-50.4l4435.3,4.6l4437.6,6.9l61.9,48.1c133,98.6,158.2,155.9,165,389.7c11.5,254.5-43.5,717.5-121.5,1033.8c-210.9,866.4-692.2,1698.5-1334,2299C7841.1-641.2,7291-283.6,6811.9-86.5l-240.7,98.6l98.6,77.9c183.4,144.4,495.1,474.5,609.7,646.4c563.9,834.3,634.9,1870.4,188,2755.2c-254.4,504.3-735.8,981-1246.9,1237.8c-169.6,84.8-433.2,174.2-653.3,224.6C5338,5004.4,4868.1,5027.3,4638.9,4995.2z M5209.7,4218.2c859.6-98.6,1554.1-726.6,1721.4-1556.4c48.1-233.8,36.7-692.2-22.9-907.7c-100.8-359.9-348.4-754.1-623.5-985.6c-419.5-357.6-990.2-536.4-1494.5-472.2c-816,103.1-1423.4,628-1666.4,1434.9c-55,181.1-61.9,245.3-61.9,527.2c0,259,9.2,355.3,50.4,504.3c231.5,855,951.2,1432.6,1836,1476.1C4980.4,4238.8,5097.4,4229.6,5209.7,4218.2z M5764.4-558.7C7403.3-900.2,8581.4-2195.3,8829-3923.6l13.8-87.1H5003.4c-3697.2,0-3837.1,2.3-3837.1,41.3c0,107.7,80.2,499.7,151.3,738.1c100.8,332.4,369,877.9,575.3,1169c199.4,279.6,600.5,678.5,877.9,877.9c233.8,165,724.3,421.8,951.3,495.1c492.8,160.4,834.3,210.9,1363.8,197.1C5397.6-499.1,5548.9-515.1,5764.4-558.7z"/></g></g>
</svg>