<?xml version="1.0" encoding="utf-8"?>
<!DOCTYPE svg PUBLIC "-//W3C//DTD SVG 1.1//EN" "http://www.w3.org/Graphics/SVG/1.1/DTD/svg11.dtd">
<svg version="1.1" xmlns="http://www.w3.org/2000/svg" xmlns:xlink="http://www.w3.org/1999/xlink" x="0px" y="0px" viewBox="0 0 1000 1000" enable-background="new 0 0 1000 1000" xml:space="preserve">
<metadata> Register Account </metadata>
<g><g transform="translate(0.000000,511.000000) scale(0.100000,-0.100000)"><path d="M4196.6,4941.7c-1004.2-136.3-1843.3-867.9-2127.8-1855.3c-277.3-951.6,55-2032.2,815.3-2668.2c98-81.3,172.1-148.2,169.8-150.6c-2.4-2.4-90.9-38.3-196.1-78.9c-528.4-210.4-987.4-521.2-1448.8-982.6c-272.6-272.6-389.7-411.2-545.1-643.1c-449.5-674.2-681.4-1350.8-745.9-2182.9c-26.3-329.9-26.3-356.2,19.1-439.9c55-110,176.9-176.9,313.2-176.9c119.5,0,205.6,40.6,301.2,141.1c64.6,66.9,71.7,90.8,88.5,329.9c62.2,774.6,251,1353.2,638.3,1943.8c186.5,282.1,688.6,781.8,982.6,977.8c404,267.8,863.1,459,1365.2,566.6c160.2,35.9,306,45.4,693.3,45.4c425.6,0,523.6-7.2,738.8-55c604.9-136.3,1162-406.4,1585.1-772.2l133.9-117.1l31.1,88.4c50.2,160.2,157.8,351.5,260.6,468.6L7369.2-507l-64.6,55c-318,255.8-719.6,490.1-1118.9,650.3l-186.5,76.5l129.1,100.4c370.6,284.5,688.6,743.6,836.8,1209.8c98,308.4,122,459.1,122,800.9s-23.9,492.5-122,800.9c-277.3,870.3-1013.7,1527.7-1924.6,1721.4C4827.8,4953.6,4404.6,4970.4,4196.6,4941.7z M5093.1,4131.2c124.3-40.7,275-102.8,334.7-136.3c549.9-320.4,884.6-855.9,925.3-1489.5c50.2-817.7-416-1551.7-1164.3-1831.4c-1095-411.2-2259.3,241.5-2474.5,1389.1c-184.1,970.7,451.9,1905.5,1446.5,2127.8c105.2,23.9,246.3,33.5,430.4,26.3C4823,4210.1,4904.3,4195.8,5093.1,4131.2z"/><path d="M7895.2-1080.8c-43-26.3-98-81.3-124.3-124.3c-43-74.1-47.8-121.9-47.8-681.4v-604.9h-609.6c-478.2,0-626.4-7.2-676.6-33.5c-155.4-81.3-260.6-272.6-222.4-408.8c33.5-124.3,110-217.6,224.7-272.6c95.6-47.8,143.5-50.2,693.4-50.2h590.5v-619.2c0-602.5,2.4-619.2,55-698.1c145.8-220,461.4-215.2,609.6,9.5l64.6,95.6l7.2,604.9l7.2,604.9l595.3,7.2c559.5,7.2,597.7,9.6,662.3,57.4c239.1,179.3,234.3,480.5-14.4,647.9c-78.9,52.6-98,55-662.2,55h-583.4v545.1c0,298.9-12,581-23.9,626.4C8378.2-1092.8,8086.5-966.1,7895.2-1080.8z"/></g></g>
</svg>